<svg xmlns="http://www.w3.org/2000/svg" width="51" height="45" viewBox="0 0 51 45">
  <defs>
    <style>
      .cls-1 {
        fill: #2a2a2a;
        fill-rule: evenodd;
      }
    </style>
  </defs>
  <path class="cls-1" d="M6.014,11.576A5.322,5.322,0,1,0,.693,6.249,5.325,5.325,0,0,0,6.014,11.576Zm0-8.172A2.845,2.845,0,1,1,3.166,6.249,2.849,2.849,0,0,1,6.014,3.4Zm0,24.6A5.317,5.317,0,1,0,.693,22.683,5.325,5.325,0,0,0,6.014,28Zm0-8.161a2.845,2.845,0,1,1-2.847,2.845A2.849,2.849,0,0,1,6.014,19.838Zm0,24.6A5.317,5.317,0,1,0,.693,39.117,5.326,5.326,0,0,0,6.014,44.434Zm0-8.172a2.845,2.845,0,1,1-2.847,2.845A2.849,2.849,0,0,1,6.014,36.262ZM18.452,7.49H48.891a1.241,1.241,0,1,0,0-2.482H18.452A1.241,1.241,0,1,0,18.452,7.49Zm0,16.434H48.891a1.241,1.241,0,1,0,0-2.482H18.452A1.241,1.241,0,1,0,18.452,23.924Zm0,16.424H48.891a1.241,1.241,0,1,0,0-2.482H18.452A1.241,1.241,0,1,0,18.452,40.348Z"/>
</svg>
