<svg xmlns="http://www.w3.org/2000/svg" width="37" height="43" viewBox="0 0 37 43">
  <defs>
    <style>
      .cls-1 {
        fill: #2a2a2a;
        fill-rule: evenodd;
      }
    </style>
  </defs>
  <path class="cls-1" d="M25.755,25.2l-0.108-.049c-0.261-.118-0.522-0.229-0.789-0.334q-0.438-.175-0.887-0.326c-0.237-.078-0.476-0.15-0.716-0.221-0.368-.106-0.738-0.2-1.12-0.287-0.13-.026-0.262-0.052-0.394-0.076l-0.09-.017c-0.225-.044-0.452-0.083-0.681-0.117l-0.065-.01-0.007,0-0.065-.009c-0.19-.029-0.38-0.055-0.577-0.078l-0.67-.055a18.13,18.13,0,0,0-2.49.007l-0.237.02-0.111.009-0.277.025c-0.254.027-.509,0.062-0.762,0.1l-0.074.01c-0.173.029-.345,0.061-0.516,0.092-0.189.034-.376,0.071-0.563,0.112-0.36.081-.719,0.173-1.067,0.274-0.277.079-.549,0.166-0.806,0.255l-0.178.064c-0.544.192-1.086,0.413-1.61,0.656l-0.139.067,0,0A17.752,17.752,0,0,0,.679,41.26c0,0.156.011,0.308,0.019,0.462L0.744,42.8H36l0.046-1.062c0.011-.157.021-0.313,0.021-0.474A17.725,17.725,0,0,0,25.755,25.2ZM2.408,41.069a16,16,0,0,1,9.155-14.226l0.175-.069,0.021-.02c0.43-.2.873-0.374,1.322-0.533l0.143-.051c0.246-.084.489-0.162,0.741-0.234,0.316-.092.638-0.175,0.96-0.248,0.167-.035.334-0.069,0.505-0.1,0.137-.025.273-0.051,0.41-0.073l0.068-.012c0.247-.039.494-0.074,0.742-0.1l0.564-.049a15.255,15.255,0,0,1,2.305,0L20.07,25.4c0.136,0.015.271,0.034,0.437,0.057l0.2,0.029c0.206,0.03.413,0.066,0.621,0.1l0.1,0.018c0.116,0.021.232,0.044,0.342,0.067,0.341,0.074.675,0.162,1.006,0.258,0.22,0.064.438,0.129,0.65,0.2q0.405,0.135.8,0.292c0.255,0.1.5,0.206,0.75,0.319l0.043,0.02a16,16,0,0,1,9.325,14.3H2.408v0ZM14.1,21.4c0.129,0.054.264,0.1,0.4,0.15l0.281,0.1c0.107,0.042.217,0.082,0.328,0.117a10.944,10.944,0,0,0,3.2.5l0.087,0a10.983,10.983,0,0,0,1.114-.057c0.123-.012.245-0.032,0.366-0.053l0.271-.041c0.152-.02.3-0.042,0.463-0.073,0.109-.022.215-0.051,0.319-0.079l0.3-.075c0.147-.035.293-0.071,0.438-0.116,0.09-.028.178-0.061,0.264-0.094l0.239-.086c0.169-.058.34-0.119,0.512-0.191,0.067-.028.132-0.059,0.195-0.091l0.077-.038c0.234-.1.468-0.212,0.7-0.336l0.15-.089c0.261-.147.519-0.3,0.78-0.478,0.136-.091.266-0.194,0.393-0.3l0.443-.344a10.934,10.934,0,0,0,4.007-8.4l0-.091A11.024,11.024,0,0,0,7.4,10.555l-0.01.143c-0.013.183-.026,0.365-0.026,0.551A11,11,0,0,0,14.1,21.4ZM9.114,10.817l0.011-.156A9.3,9.3,0,0,1,27.7,11.17l0,0.091a9.293,9.293,0,0,1-3.4,7.157l-0.409.312c-0.092.074-.184,0.149-0.3,0.228-0.208.141-.426,0.268-0.65,0.394l-0.123.075c-0.187.1-.382,0.189-0.587,0.28l-0.229.111c-0.132.054-.269,0.1-0.406,0.149l-0.285.1c-0.055.021-.112,0.043-0.166,0.059-0.106.033-.217,0.058-0.324,0.085L20.48,20.3c-0.074.02-.148,0.04-0.214,0.054-0.114.022-.233,0.038-0.349,0.054l-0.328.049c-0.079.014-.159,0.028-0.249,0.036-0.287.03-.576,0.047-0.87,0.049H18.387a9.3,9.3,0,0,1-2.764-.419c-0.076-.024-0.151-0.055-0.227-0.083l-0.324-.118c-0.1-.035-0.2-0.07-0.3-0.111a9.281,9.281,0,0,1-5.678-8.564C9.094,11.1,9.1,10.96,9.114,10.817Z"/>
</svg>
